<?xml version="1.0" encoding="UTF-8" standalone="no"?>
<!DOCTYPE svg PUBLIC "-//W3C//DTD SVG 1.1//EN" "http://www.w3.org/Graphics/SVG/1.1/DTD/svg11.dtd">
<svg width="100%" height="100%" viewBox="0 0 1017 2140" version="1.1" xmlns="http://www.w3.org/2000/svg" xmlns:xlink="http://www.w3.org/1999/xlink" xml:space="preserve" xmlns:serif="http://www.serif.com/" style="fill-rule:evenodd;clip-rule:evenodd;stroke-linecap:round;stroke-linejoin:round;stroke-miterlimit:1.5;">
    <g transform="matrix(2,0,0,2,-0.00531484,-0.0013898)">
        <g transform="matrix(1,0,0,1,-843.303,-11.8738)">
            <g transform="matrix(-1.29116,6.63351e-17,3.23934e-16,1.29435,2066.04,-216.001)">
                <path fill="#4DAA57" d="M563.316,632.979C564.635,628.674 569.833,615.097 569.833,615.097C595.737,630.703 620.628,627.683 644.825,611.91C620.638,606.786 600.488,595.46 586.774,574.242L644.064,457.874C660.729,462.832 677.395,460.986 694.06,452.873C680.577,450.459 668.08,444.092 656.85,432.649C656.85,432.649 749.461,236.049 737.859,176.054C777.823,200.475 863.484,326.602 863.484,326.602C857.722,342.772 846.908,353.517 833.111,361.06C847.784,367.251 862.457,367.472 877.13,354.826L926.188,523.099C909.031,541.734 887.946,549.925 864.173,550.97C887.894,568.437 911.614,573.89 935.335,564.584C935.335,564.584 959.235,724.27 938.628,768.023C855.639,944.226 489.524,873.855 563.316,632.979Z" style="fill:rgb(61,142,51);"/>
            </g>
            <path fill="#4DAA57" d="M1047.01,858.497C1112.88,917.051 1070.06,1021.12 1004.33,1056.44" style="fill:none;stroke:rgb(61,142,51);stroke-width:50px;"/>
        </g>
    </g>
</svg>
